<svg width="14" height="15" viewBox="0 0 14 15" fill="none" xmlns="http://www.w3.org/2000/svg">
<path d="M4.2 0.5C3.29479 0.5 2.5234 1.08987 2.23125 1.9H0.7C0.313404 1.9 0 2.2134 0 2.6C0 2.9866 0.313404 3.3 0.7 3.3H2.22989C2.52168 4.11078 3.29432 4.7 4.2 4.7C5.10521 4.7 5.8766 4.11013 6.16875 3.3H13.3C13.6866 3.3 14 2.9866 14 2.6C14 2.2134 13.6866 1.9 13.3 1.9H6.16875C5.8766 1.08987 5.10521 0.5 4.2 0.5ZM4.2 1.9C4.59489 1.9 4.9 2.20511 4.9 2.6C4.9 2.99489 4.59489 3.3 4.2 3.3C3.80511 3.3 3.5 2.99489 3.5 2.6C3.5 2.20511 3.80511 1.9 4.2 1.9Z" fill="#FD5631"/>
<path d="M9.1 5.40002C8.19479 5.40002 7.4234 5.98989 7.13125 6.80002H0.7C0.313404 6.80002 0 7.11342 0 7.50002C0 7.88663 0.313404 8.20002 0.7 8.20002H7.12988C7.42168 9.01081 8.19432 9.60002 9.1 9.60002C10.0052 9.60002 10.7766 9.01016 11.0687 8.20002H13.3C13.6866 8.20002 14 7.88663 14 7.50002C14 7.11342 13.6866 6.80002 13.3 6.80002H11.0687C10.7766 5.98989 10.0052 5.40002 9.1 5.40002ZM9.1 6.80002C9.49489 6.80002 9.8 7.10513 9.8 7.50002C9.8 7.89492 9.49489 8.20002 9.1 8.20002C8.70511 8.20002 8.4 7.89492 8.4 7.50002C8.4 7.10513 8.70511 6.80002 9.1 6.80002Z" fill="#FD5631"/>
<path d="M4.2 10.3C3.29479 10.3 2.5234 10.8899 2.23125 11.7H0.7C0.313404 11.7 0 12.0134 0 12.4C0 12.7867 0.313404 13.1 0.7 13.1H2.23125C2.5234 13.9102 3.29479 14.5 4.2 14.5C5.10568 14.5 5.87832 13.9108 6.17011 13.1H13.3C13.6866 13.1 14 12.7867 14 12.4C14 12.0134 13.6866 11.7 13.3 11.7H6.16875C5.8766 10.8899 5.10521 10.3 4.2 10.3ZM4.2 11.7C4.59489 11.7 4.9 12.0052 4.9 12.4C4.9 12.7949 4.59489 13.1 4.2 13.1C3.80511 13.1 3.5 12.7949 3.5 12.4C3.5 12.0052 3.80511 11.7 4.2 11.7Z" fill="#FD5631"/>
</svg>
