<svg width="50" height="50" viewBox="0 0 50 50" fill="none" xmlns="http://www.w3.org/2000/svg">
<g filter="url(#filter0_d_2267_1349)">
<circle cx="25" cy="23" r="15" fill="white"/>
</g>
<path d="M28.85 24.1111C29.6695 23.3 30.5 22.3278 30.5 21.0556C30.5 20.2452 30.1813 19.468 29.614 18.895C29.0467 18.3219 28.2773 18 27.475 18C26.507 18 25.825 18.2778 25 19.1111C24.175 18.2778 23.493 18 22.525 18C21.7227 18 20.9533 18.3219 20.386 18.895C19.8187 19.468 19.5 20.2452 19.5 21.0556C19.5 22.3333 20.325 23.3056 21.15 24.1111L25 28L28.85 24.1111Z" fill="white" stroke="#FD5631" stroke-linecap="round" stroke-linejoin="round"/>
<defs>
<filter id="filter0_d_2267_1349" x="0" y="0" width="50" height="50" filterUnits="userSpaceOnUse" color-interpolation-filters="sRGB">
<feFlood flood-opacity="0" result="BackgroundImageFix"/>
<feColorMatrix in="SourceAlpha" type="matrix" values="0 0 0 0 0 0 0 0 0 0 0 0 0 0 0 0 0 0 127 0" result="hardAlpha"/>
<feOffset dy="2"/>
<feGaussianBlur stdDeviation="5"/>
<feComposite in2="hardAlpha" operator="out"/>
<feColorMatrix type="matrix" values="0 0 0 0 0 0 0 0 0 0 0 0 0 0 0 0 0 0 0.12 0"/>
<feBlend mode="normal" in2="BackgroundImageFix" result="effect1_dropShadow_2267_1349"/>
<feBlend mode="normal" in="SourceGraphic" in2="effect1_dropShadow_2267_1349" result="shape"/>
</filter>
</defs>
</svg>
