<svg width="16" height="15" viewBox="0 0 16 15" fill="none" xmlns="http://www.w3.org/2000/svg">
<path d="M8.65121 0.152512C9.57252 0.348881 10.4476 0.73259 11.2264 1.28168C11.9926 1.82119 12.6525 2.50858 13.1704 3.30668C13.6973 4.11801 14.0657 5.02953 14.2544 5.98917C14.3525 6.49326 14.4008 7.0065 14.3984 7.52084H16L13.6 10.8333L11.2 7.52084H12.7984C12.8 7.11751 12.7632 6.71417 12.6864 6.32501C12.5397 5.57916 12.2534 4.87069 11.844 4.24001C11.4414 3.61803 10.9275 3.08271 10.3304 2.66334C9.40622 2.01223 8.31572 1.66504 7.20001 1.66668C6.4513 1.66682 5.71015 1.82264 5.02001 2.12501C4.68757 2.27206 4.36933 2.45176 4.06961 2.66168C3.77169 2.87242 3.49341 3.1118 3.23841 3.37668C2.46546 4.18334 1.93526 5.20741 1.71281 6.32334C1.5624 7.0994 1.5624 7.89895 1.71281 8.675C1.85968 9.42121 2.1462 10.13 2.55601 10.7608C2.95825 11.3821 3.4716 11.9168 4.06801 12.3358C4.99317 12.9862 6.08388 13.3336 7.20001 13.3333V15C5.76505 14.9991 4.36293 14.5526 3.17281 13.7175C2.4079 13.1776 1.74869 12.491 1.23041 11.6942C0.426031 10.4562 -0.00263786 8.99491 1.14441e-05 7.50001C5.34058e-05 6.99228 0.0491009 6.48584 0.146412 5.98834C0.336501 5.0294 0.704741 4.11843 1.23041 3.30668C1.48823 2.90811 1.78268 2.53663 2.10961 2.19751C2.43651 1.85792 2.79327 1.55102 3.17521 1.28084C4.36339 0.443656 5.76554 -0.00255871 7.20001 1.14441e-05C7.68742 5.53131e-05 8.1736 0.0511456 8.65121 0.152512Z" fill="#FD5631"/>
</svg>
