<svg width="15" height="14" viewBox="0 0 15 14" fill="none" xmlns="http://www.w3.org/2000/svg">
<path d="M4.94019 4.22661L0.584663 4.84347L0.50752 4.85881C0.390739 4.88909 0.284279 4.94911 0.19901 5.03273C0.113741 5.11635 0.0527181 5.22058 0.0221739 5.33477C-0.00837034 5.44896 -0.00734191 5.56903 0.0251541 5.68271C0.0576501 5.79639 0.120449 5.8996 0.207139 5.98182L3.36251 8.98207L2.61838 13.22L2.6095 13.2934C2.60236 13.4114 2.62744 13.5291 2.68218 13.6345C2.73692 13.7399 2.81935 13.8292 2.92104 13.8933C3.02272 13.9573 3.14001 13.9938 3.26089 13.999C3.38176 14.0042 3.50189 13.978 3.60895 13.9229L7.50435 11.9223L11.3909 13.9229L11.4591 13.9536C11.5718 13.997 11.6943 14.0103 11.814 13.9921C11.9337 13.974 12.0462 13.9251 12.1402 13.8504C12.2341 13.7757 12.306 13.678 12.3486 13.5672C12.3911 13.4565 12.4027 13.3366 12.3821 13.22L11.6373 8.98207L14.7941 5.98115L14.8473 5.92447C14.9234 5.83295 14.9732 5.72337 14.9918 5.6069C15.0104 5.49043 14.9971 5.37122 14.9532 5.26142C14.9093 5.15162 14.8363 5.05515 14.7418 4.98185C14.6473 4.90855 14.5346 4.86103 14.4152 4.84413L10.0596 4.22661L8.11262 0.372094C8.05628 0.260416 7.96907 0.166374 7.86084 0.100614C7.75262 0.034853 7.62771 0 7.50026 0C7.3728 0 7.24789 0.034853 7.13967 0.100614C7.03144 0.166374 6.94423 0.260416 6.88789 0.372094L4.94019 4.22661Z" fill="#FDBC31"/>
</svg>
