<svg width="22" height="22" viewBox="0 0 22 22" fill="none" xmlns="http://www.w3.org/2000/svg">
<path fill-rule="evenodd" clip-rule="evenodd" d="M13.1863 14.159C11.9508 15.1461 10.3842 15.6227 8.80821 15.4909C7.23225 15.3591 5.76658 14.6288 4.71223 13.4501C3.65788 12.2714 3.09488 10.7337 3.13887 9.15285C3.18286 7.572 3.83049 6.06799 4.94875 4.94973C6.06702 3.83147 7.57102 3.18383 9.15188 3.13985C10.7327 3.09586 12.2704 3.65886 13.4491 4.71321C14.6279 5.76756 15.3581 7.23322 15.4899 8.80918C15.6218 10.3851 15.1452 11.9518 14.158 13.1873L18.8843 17.9127C18.9519 17.9756 19.006 18.0515 19.0436 18.1359C19.0812 18.2202 19.1014 18.3112 19.103 18.4036C19.1046 18.4959 19.0877 18.5876 19.0531 18.6732C19.0185 18.7588 18.967 18.8365 18.9018 18.9018C18.8365 18.9671 18.7587 19.0186 18.6731 19.0531C18.5875 19.0877 18.4958 19.1047 18.4035 19.1031C18.3112 19.1014 18.2201 19.0812 18.1358 19.0437C18.0515 19.0061 17.9756 18.9519 17.9126 18.8844L13.1863 14.159ZM5.92081 12.7271C5.24801 12.0543 4.78978 11.197 4.60403 10.2638C4.41828 9.33061 4.51334 8.36327 4.8772 7.48406C5.24106 6.60485 5.85738 5.85324 6.64829 5.32421C7.43919 4.79518 8.36917 4.51249 9.3207 4.51185C10.2722 4.51121 11.2026 4.79265 11.9942 5.32062C12.7858 5.84858 13.4032 6.59936 13.7682 7.47808C14.1332 8.3568 14.2296 9.32401 14.0451 10.2575C13.8606 11.1909 13.4035 12.0488 12.7316 12.7225L12.7271 12.7271L12.7225 12.7308C11.8196 13.6315 10.5962 14.1371 9.32088 14.1364C8.04557 14.1357 6.82267 13.6288 5.92081 12.7271Z" fill="#898989"/>
</svg>
