<svg width="15" height="15" viewBox="0 0 15 15" fill="none" xmlns="http://www.w3.org/2000/svg">
<path fill-rule="evenodd" clip-rule="evenodd" d="M9.4414 10.3548C8.28068 11.2823 6.8089 11.7301 5.32836 11.6062C3.84781 11.4824 2.47087 10.7963 1.48036 9.68887C0.489838 8.58145 -0.039073 7.13677 0.00225123 5.65154C0.0435754 4.16631 0.651998 2.75328 1.70256 1.70266C2.75312 0.652036 4.16607 0.0435779 5.65122 0.00225135C7.13636 -0.0390752 8.58096 0.489867 9.68831 1.48044C10.7957 2.47102 11.4817 3.84803 11.6056 5.32866C11.7294 6.80929 11.2816 8.28115 10.3542 9.44194L14.7944 13.8815C14.8579 13.9407 14.9088 14.012 14.9441 14.0912C14.9794 14.1704 14.9984 14.256 14.9999 14.3427C15.0014 14.4294 14.9855 14.5156 14.953 14.596C14.9205 14.6764 14.8722 14.7495 14.8108 14.8108C14.7495 14.8722 14.6764 14.9205 14.596 14.953C14.5156 14.9855 14.4295 15.0014 14.3427 14.9999C14.256 14.9984 14.1705 14.9794 14.0913 14.9441C14.012 14.9088 13.9407 14.8579 13.8816 14.7944L9.4414 10.3548ZM2.61577 9.00961C1.9837 8.37744 1.55321 7.57208 1.37871 6.69532C1.2042 5.81855 1.2935 4.90972 1.63533 4.08369C1.97717 3.25767 2.55618 2.55152 3.2992 2.05449C4.04222 1.55746 4.9159 1.29186 5.80982 1.29126C6.70374 1.29066 7.57777 1.55508 8.32146 2.05111C9.06515 2.54714 9.64512 3.25251 9.98806 4.07807C10.331 4.90364 10.4215 5.81234 10.2482 6.68935C10.0749 7.56635 9.64547 8.37229 9.01426 9.0053L9.00995 9.00961L9.00565 9.01305C8.15747 9.85931 7.0081 10.3343 5.80999 10.3336C4.61189 10.333 3.46303 9.85678 2.61577 9.00961Z" fill="#898989"/>
</svg>
